PathFileType	4	(X/Y/Z)	E:\Marcel_BSc\Ayumi_22_01_2025\22-01-2025\sumo_dl_1.trc
DataRate	CameraRate	NumFrames	NumMarkers	Units	OrigDataRate	OrigDataStartFrame	OrigNumFrames
200.0	200.0	7	47	mm	200.0	1369	2190	
Frame#	Time	FHD			LBHD			RBHD			RBAR			LBAR			RSACR			LSACR			USACR			C7			CLAV			T10			RSHO			LSHO			LTHI1			LTHI3			LTHI2			LTIB1			LTIB2			LTIB3			LMMAL			LLMAL			LHEE			LMT1			LMT5			LMT3			RTHI1			RTHI2			RTHI3			RTIB1			RTIB3			RTIB2			RLMAL			RMMAL			RHEE			RMT5			RMT1			RMT3			LDUPA			LMUPA			LUUPA			LRAD			RUL			RRAD			RUFIN			RMUPA			RDUPA			RUUPA			
		X1	Y1	Z1	X2	Y2	Z2	X3	Y3	Z3	X4	Y4	Z4	X5	Y5	Z5	X6	Y6	Z6	X7	Y7	Z7	X8	Y8	Z8	X9	Y9	Z9	X10	Y10	Z10	X11	Y11	Z11	X12	Y12	Z12	X13	Y13	Z13	X14	Y14	Z14	X15	Y15	Z15	X16	Y16	Z16	X17	Y17	Z17	X18	Y18	Z18	X19	Y19	Z19	X20	Y20	Z20	X21	Y21	Z21	X22	Y22	Z22	X23	Y23	Z23	X24	Y24	Z24	X25	Y25	Z25	X26	Y26	Z26	X27	Y27	Z27	X28	Y28	Z28	X29	Y29	Z29	X30	Y30	Z30	X31	Y31	Z31	X32	Y32	Z32	X33	Y33	Z33	X34	Y34	Z34	X35	Y35	Z35	X36	Y36	Z36	X37	Y37	Z37	X38	Y38	Z38	X39	Y39	Z39	X40	Y40	Z40	X41	Y41	Z41	X42	Y42	Z42	X43	Y43	Z43	X44	Y44	Z44	X45	Y45	Z45	X46	Y46	Z46	X47	Y47	Z47	
1369	6.835	164.09322	1506.2865	-998.13092	182.29643	1492.9279	-936.90173	201.80608	1476.2698	-1068.3715	229.05104	641.56683	-2096.7744	247.65326	605.32434	122.85327	451.86823	855.55469	-1037.2437	452.48517	855.56555	-964.11823	447.57697	868.73029	-1000.5543	359.93802	1302.8621	-997.64984	228.07544	1213.4297	-994.64404	431.64651	1038.5211	-1005.2862	234.0527	1230.1232	-1159.7124	279.65027	1222.4653	-823.60974	365.47031	570.5351	-738.09009	363.24518	506.22577	-730.58801	326.939	527.99567	-703.63403	322.19095	240.07925	-582.63275	362.2735	221.0972	-608.16095	332.27805	175.88188	-571.07367	270.48898	63.932114	-587.17902	327.16559	69.574249	-543.93719	333.67798	29.414028	-591.1825	184.93533	44.593613	-461.46042	252.27058	27.157822	-417.58435	206.10442	39.568245	-434.17218	362.22485	571.36743	-1250.144	324.57587	527.40253	-1281.3787	365.9321	507.04681	-1259.3036	334.99292	270.81976	-1387.3805	343.42374	209.1947	-1397.7241	373.89429	253.44295	-1362.2114	334.69611	69.342056	-1436.2992	265.39511	67.409248	-1405.0649	337.939	28.934942	-1388.4152	259.99997	26.863287	-1563.2546	198.71037	37.693134	-1531.5717	221.7476	34.646107	-1552.8683	357.07132	1006.0874	-773.49774	308.03021	1015.1849	-773.99207	318.56146	1076.0166	-775.51074	277.74316	690.23724	-728.88306	196.30014	707.72968	-1274.9602	196.15384	701.0683	-1212.3407	191.35759	623.5448	-1213.8602	264.14395	1106.9128	-1229.6255	255.25481	1046.6421	-1242.426	312.8555	1100.4675	-1235.3837
1370	6.84	162.66647	1506.3384	-998.02777	180.92323	1492.8453	-936.84027	200.33832	1476.2529	-1068.2947	224.64072	642.54755	-2095.4443	248.2563	605.013	122.87427	452.81674	856.12415	-1037.0939	453.34988	856.24841	-963.91541	448.4213	869.44373	-1000.3492	358.21597	1302.6216	-997.59833	226.84224	1212.8668	-994.58643	431.35669	1039.1038	-1005.1022	232.69521	1229.7123	-1159.5712	278.06381	1222.2878	-823.60828	365.88235	571.85608	-737.08038	363.60785	505.66064	-729.74854	327.12991	528.42865	-702.81659	321.97403	240.19374	-582.13184	362.01245	221.42552	-607.80646	332.16785	176.01419	-570.75098	270.46484	64.020798	-587.10718	327.17773	69.631783	-543.85876	333.67828	29.447958	-591.16205	184.92918	44.627159	-461.45691	252.20746	27.461849	-417.19482	205.84485	39.91769	-433.54214	362.0004	571.57996	-1251.1001	323.78418	527.94885	-1282.3099	364.71716	506.18958	-1260.6392	332.77966	272.33505	-1387.8873	342.50174	209.46817	-1398.2902	372.73578	253.90112	-1363.0278	334.52707	69.512856	-1436.3729	265.19241	67.487274	-1405.0931	337.89548	28.981903	-1388.4272	259.94696	26.891972	-1563.2128	198.67061	37.675762	-1531.5261	221.7261	34.647709	-1552.8409	355.89688	1005.9456	-773.63098	306.83167	1015.0498	-774.07062	317.25558	1075.8741	-775.44977	277.90561	690.06665	-728.84369	196.24593	707.49762	-1274.9208	196.15996	700.71936	-1212.2777	191.53041	623.20447	-1213.8535	262.88104	1106.8433	-1229.4587	254.19211	1046.5308	-1242.3408	311.5853	1100.5846	-1235.4617
1371	6.845	161.24567	1506.3695	-997.88025	179.46638	1492.7722	-936.8269	198.83136	1476.1497	-1068.2292	224.92114	642.48608	-2095.5273	248.86292	604.67999	122.86906	453.76346	856.79956	-1036.8528	454.23169	857.01068	-963.63959	449.22287	870.09674	-1000.1196	356.50464	1302.6976	-997.38989	225.69084	1212.2719	-994.54797	431.05042	1039.6559	-1004.887	231.33788	1229.4221	-1159.2974	276.34802	1222.0791	-823.58655	366.27298	571.98889	-736.17041	363.5737	506.54791	-728.7334	327.2276	528.72913	-701.94507	322.08609	241.25847	-581.18683	361.72266	221.70985	-607.41315	332.07004	176.15973	-570.41034	270.43597	64.100388	-587.03741	327.2233	69.682983	-543.77545	333.68796	29.501965	-591.13867	184.96594	44.587486	-461.46259	252.25249	27.156666	-417.5864	205.99969	39.712318	-433.90991	361.59195	572.2373	-1252.1508	323.09393	528.52637	-1283.2826	363.74863	505.73898	-1261.8824	332.5708	273.16806	-1389.2113	341.42535	210.10559	-1399.0052	371.50525	254.72403	-1363.7283	334.35043	69.668663	-1436.4199	264.94394	67.540993	-1405.1318	337.86182	29.057619	-1388.4172	259.89737	26.927822	-1563.1516	198.62807	37.652714	-1531.4642	221.67993	34.675514	-1552.808	354.6167	1005.9122	-773.65009	305.59906	1014.8812	-774.07538	315.9093	1075.7651	-775.35297	278.03824	689.83276	-728.84656	196.30795	707.11743	-1274.9471	196.14748	700.3363	-1212.2726	191.78699	622.75537	-1213.8979	261.72238	1106.6558	-1229.329	253.19624	1046.4015	-1242.2562	310.39633	1100.6534	-1235.5167
1372	6.85	159.78073	1506.144	-997.86566	178.03363	1492.5232	-936.76361	197.3105	1475.9486	-1068.1414	225.05292	642.409	-2095.5278	249.43254	604.34338	122.85971	454.69821	857.50342	-1036.5778	455.07599	857.84222	-963.35529	450.09207	870.73877	-999.88092	354.74118	1303.1101	-996.97052	224.44389	1211.5424	-994.50494	430.80704	1040.1365	-1004.6437	229.97475	1228.9993	-1159.1012	274.57849	1221.7454	-823.63519	366.7832	572.19421	-735.23523	363.79114	506.81268	-727.72974	327.39264	529.12427	-701.08917	321.61682	240.59753	-581.06494	361.72058	221.91229	-606.9682	332.19067	176.53828	-569.81567	270.46667	64.202377	-586.9801	327.27704	69.710022	-543.66901	333.72055	29.540922	-591.09973	184.93033	44.663513	-461.44766	252.27982	27.178631	-417.56094	206.0378	39.694389	-433.91898	361.72745	572.71808	-1253.4954	322.52188	529.11298	-1284.3057	362.94122	507.0271	-1263.3794	330.30368	273.12473	-1389.783	340.60797	210.36002	-1399.5433	370.27908	255.47832	-1364.4851	334.19611	69.82148	-1436.4988	264.75934	67.54454	-1405.1702	337.82974	29.104132	-1388.4202	259.86221	26.969318	-1563.103	198.58992	37.640934	-1531.4346	221.65944	34.700138	-1552.7833	353.27722	1005.78	-773.64923	304.11832	1014.6378	-774.1593	314.36792	1075.5654	-775.27448	278.12912	689.55988	-728.83246	196.38437	706.69586	-1274.9797	196.19382	699.95721	-1212.3357	192.12436	622.39618	-1213.8488	260.61478	1106.413	-1229.2134	252.33018	1046.0909	-1242.2556	309.31699	1100.5997	-1235.5034
1373	6.855	158.25276	1505.9393	-997.77533	176.45876	1492.2546	-936.66864	195.73021	1475.6672	-1068.0564	225.33649	642.31982	-2095.6931	250.09	604.02625	122.91971	455.6759	857.93512	-1036.3846	455.99844	858.3819	-963.12891	450.91287	871.34869	-999.68365	352.94193	1302.7338	-996.8222	223.18793	1210.7853	-994.43756	430.50409	1040.5977	-1004.4318	228.64845	1228.3837	-1158.9427	272.80472	1221.371	-823.60406	367.27161	572.26453	-734.24261	363.97159	506.93906	-726.65784	327.69595	529.60254	-700.22791	322.31461	240.25064	-580.1983	361.54944	222.16158	-606.52753	331.94235	176.43208	-569.6817	270.5462	64.810692	-587.34839	327.33878	69.745781	-543.56036	333.74295	29.586945	-591.06433	184.96208	44.670788	-461.43298	252.20436	27.367416	-417.23343	205.91071	39.947296	-433.53931	361.26382	572.60986	-1254.3352	321.79663	529.71912	-1285.3583	362.01822	508.655	-1263.9325	329.59027	272.91705	-1390.9901	340.05762	210.26701	-1399.9233	369.14062	256.15942	-1365.1879	334.06888	69.938667	-1436.5691	264.55206	67.556816	-1405.2147	337.78769	29.114628	-1388.4382	259.82153	27.007336	-1563.0767	198.57057	37.607872	-1531.3887	221.6265	34.692322	-1552.752	351.70917	1005.6013	-773.57642	302.65381	1014.3719	-774.12555	312.7186	1075.3075	-775.18176	278.23044	689.23779	-728.83136	196.37256	706.29608	-1274.9681	196.23174	699.53851	-1212.3529	192.41936	621.90479	-1213.8739	259.6127	1106.0598	-1229.1638	251.50121	1045.8939	-1242.179	308.25165	1100.5789	-1235.514
1374	6.86	156.59682	1505.6122	-997.75641	174.71062	1491.9493	-936.61121	194.06212	1475.2699	-1068.0266	225.73125	642.17444	-2095.8713	250.69514	603.62402	122.9008	456.55603	858.56708	-1036.1315	456.85379	859.07086	-962.90442	451.7211	871.94098	-999.43793	351.18411	1302.5746	-996.56653	222.00076	1209.9797	-994.37091	430.1944	1040.9832	-1004.2288	227.31255	1227.8363	-1158.6912	270.92868	1220.9187	-823.66028	367.81793	572.62085	-733.25793	364.26645	507.24011	-725.60107	327.81589	529.84021	-699.27643	322.21582	240.40131	-579.61658	361.37903	222.40013	-606.05115	332.05219	176.83775	-569.02069	270.49438	64.495644	-586.80597	327.40347	69.773987	-543.43018	333.76889	29.630257	-591.01917	184.99596	44.651966	-461.41257	252.2431	27.338408	-417.23575	205.93983	39.969021	-433.52289	361.12897	572.64996	-1255.3965	321.16556	530.48102	-1286.4723	361.40625	507.53784	-1265.8892	329.07407	274.12146	-1392.1995	339.04129	210.99142	-1400.6594	368.06314	256.83661	-1365.96	333.96149	70.036728	-1436.6873	264.34241	67.611946	-1405.2532	337.73856	29.168831	-1388.4352	259.76486	27.034557	-1563.0226	198.53067	37.584801	-1531.3507	221.60519	34.709877	-1552.7505	350.07767	1005.3428	-773.4104	300.99551	1014.0983	-774.1781	310.60144	1075.0924	-775.17877	278.3165	688.87701	-728.83124	196.38055	705.85718	-1274.9688	196.21968	699.04016	-1212.3082	192.7719	621.44513	-1213.8531	258.6615	1105.7247	-1229.1042	250.66451	1045.6997	-1242.1213	307.40286	1100.3177	-1235.5247
1375	6.865	154.91911	1505.1769	-997.70667	173.01852	1491.5417	-936.57043	192.35272	1474.7736	-1067.9857	225.86658	642.02563	-2095.9302	251.28705	603.18549	122.92056	457.40579	859.05286	-1035.941	457.68408	859.69543	-962.65411	452.4653	872.45801	-999.26538	349.43576	1302.7307	-996.14716	220.75655	1209.0083	-994.31433	429.862	1041.3284	-1004.0143	225.94458	1227.254	-1158.491	269.06067	1220.4183	-823.7262	368.31387	572.77466	-732.16968	364.57278	507.50565	-724.51263	328.10361	530.25751	-698.38721	322.16733	240.58443	-579.04083	361.36078	222.60576	-605.5542	332.0206	176.91388	-568.66034	270.5744	65.031807	-587.07916	327.41708	69.554214	-543.18109	333.77957	29.681883	-590.97467	185.02876	44.668007	-461.3833	252.27153	27.428324	-417.13196	205.97409	39.966125	-433.51389	361.61166	572.9278	-1256.7997	320.58957	531.03564	-1287.601	360.76678	507.76535	-1267.0885	327.10846	274.22601	-1392.639	338.33514	211.28555	-1401.2133	367.05023	257.43039	-1366.7561	333.8056	70.234055	-1436.7594	264.16321	67.643547	-1405.3092	337.7204	29.191586	-1388.4373	259.72153	27.068651	-1562.9821	198.50432	37.549248	-1531.3058	221.58676	34.696342	-1552.7196	348.33774	1004.9871	-773.19757	299.22702	1013.726	-774.20209	308.99826	1074.6115	-774.97266	278.47699	688.48724	-728.82458	196.47588	705.26678	-1275.0253	196.2515	698.48657	-1212.3998	192.98795	620.8678	-1213.8771	257.76062	1105.3254	-1229.066	250.16722	1044.9648	-1242.2216	306.48203	1100.178	-1235.4806
